<?xml version="1.0" encoding="utf-8"?>
<svg version="1.1" xmlns:xlink="http://www.w3.org/1999/xlink" width="30px" height="33px" xmlns="http://www.w3.org/2000/svg">
  <defs>
    <linearGradient gradientUnits="userSpaceOnUse" x1="15.7382732949736" y1="0.0906375880288876" x2="15.7383747747662" y2="32.8275514699219" id="LinearGradient9872">
      <stop id="Stop9873" stop-color="#02a4ff" offset="0" />
      <stop id="Stop9874" stop-color="#7d40ff" offset="1" />
    </linearGradient>
    <mask fill="white" id="clip9875">
      <path d="M 0 13.2235121936705  C 0 13.2235121936705  0 4.33584885633467  0 4.33584885633467  L 15.0071668624878 0  L 30 4.33584885633467  C 30 4.33584885633467  30 13.2276380233211  30 13.2276380233211  C 30 22.5735335938548  23.9584994316101 30.0456294200464  15.0021664301554 33  C 6.04341665903727 30.0457118343591  0 22.5717177252748  0 13.2235121936705  Z " fill-rule="evenodd" />
    </mask>
  </defs>
  <g transform="matrix(1 0 0 1 -5 -3 )">
    <path d="M 0 13.2235121936705  C 0 13.2235121936705  0 4.33584885633467  0 4.33584885633467  L 15.0071668624878 0  L 30 4.33584885633467  C 30 4.33584885633467  30 13.2276380233211  30 13.2276380233211  C 30 22.5735335938548  23.9584994316101 30.0456294200464  15.0021664301554 33  C 6.04341665903727 30.0457118343591  0 22.5717177252748  0 13.2235121936705  Z " fill-rule="nonzero" fill="#ffffff" stroke="none" fill-opacity="0" transform="matrix(1 0 0 1 5 3 )" />
    <path d="M 0 13.2235121936705  C 0 13.2235121936705  0 4.33584885633467  0 4.33584885633467  L 15.0071668624878 0  L 30 4.33584885633467  C 30 4.33584885633467  30 13.2276380233211  30 13.2276380233211  C 30 22.5735335938548  23.9584994316101 30.0456294200464  15.0021664301554 33  C 6.04341665903727 30.0457118343591  0 22.5717177252748  0 13.2235121936705  Z " stroke-width="8" stroke="url(#LinearGradient9872)" fill="none" transform="matrix(1 0 0 1 5 3 )" mask="url(#clip9875)" />
  </g>
</svg>